<mxfile host="65bd71144e">
    <diagram id="ypseccQdJlciJ2LfmK2Z" name="Page-1">
        <mxGraphModel dx="2916" dy="825" grid="1" gridSize="10" guides="1" tooltips="1" connect="1" arrows="1" fold="1" page="1" pageScale="1" pageWidth="850" pageHeight="1100" math="0" shadow="0">
            <root>
                <mxCell id="0"/>
                <mxCell id="1" parent="0"/>
                <mxCell id="27" style="edgeStyle=orthogonalEdgeStyle;html=1;exitX=1;exitY=0.5;exitDx=0;exitDy=0;entryX=0;entryY=0.5;entryDx=0;entryDy=0;fontColor=#000000;labelBackgroundColor=#FFFFFF;fillColor=#f5f5f5;strokeColor=#666666;" parent="1" source="2" target="3" edge="1">
                    <mxGeometry relative="1" as="geometry"/>
                </mxCell>
                <mxCell id="26" style="edgeStyle=orthogonalEdgeStyle;html=1;exitX=1;exitY=0.5;exitDx=0;exitDy=0;fontColor=#000000;labelBackgroundColor=#FFFFFF;fillColor=#f5f5f5;strokeColor=#666666;" parent="1" source="3" edge="1">
                    <mxGeometry relative="1" as="geometry">
                        <mxPoint x="160" y="645.0769230769231" as="targetPoint"/>
                    </mxGeometry>
                </mxCell>
                <mxCell id="22" style="edgeStyle=orthogonalEdgeStyle;html=1;exitX=0;exitY=0.5;exitDx=0;exitDy=0;entryX=1;entryY=0.5;entryDx=0;entryDy=0;fontColor=#000000;labelBackgroundColor=#FFFFFF;fillColor=#f5f5f5;strokeColor=#666666;" parent="1" source="4" target="6" edge="1">
                    <mxGeometry relative="1" as="geometry"/>
                </mxCell>
                <mxCell id="25" style="edgeStyle=orthogonalEdgeStyle;html=1;exitX=0.5;exitY=1;exitDx=0;exitDy=0;entryX=0;entryY=0.5;entryDx=0;entryDy=0;fontColor=#000000;labelBackgroundColor=#FFFFFF;fillColor=#f5f5f5;strokeColor=#666666;" parent="1" source="4" target="7" edge="1">
                    <mxGeometry relative="1" as="geometry"/>
                </mxCell>
                <mxCell id="4" value="usb_process" style="rounded=0;whiteSpace=wrap;html=1;labelBackgroundColor=#FFFFFF;fillColor=#f5f5f5;fontColor=#333333;strokeColor=#666666;" parent="1" vertex="1">
                    <mxGeometry x="-40" y="420" width="120" height="60" as="geometry"/>
                </mxCell>
                <mxCell id="23" style="edgeStyle=orthogonalEdgeStyle;html=1;exitX=0;exitY=0.5;exitDx=0;exitDy=0;entryX=1;entryY=0.5;entryDx=0;entryDy=0;fontColor=#000000;labelBackgroundColor=#FFFFFF;fillColor=#f5f5f5;strokeColor=#666666;" parent="1" source="6" target="11" edge="1">
                    <mxGeometry relative="1" as="geometry"/>
                </mxCell>
                <mxCell id="6" value="usb_to_can" style="rounded=0;whiteSpace=wrap;html=1;labelBackgroundColor=#FFFFFF;fillColor=#f5f5f5;fontColor=#333333;strokeColor=#666666;" parent="1" vertex="1">
                    <mxGeometry x="-240" y="420" width="120" height="60" as="geometry"/>
                </mxCell>
                <mxCell id="7" value="CDC_Transmit_FS" style="rounded=0;whiteSpace=wrap;html=1;labelBackgroundColor=#FFFFFF;fillColor=#f5f5f5;fontColor=#333333;strokeColor=#666666;" parent="1" vertex="1">
                    <mxGeometry x="160" y="615" width="120" height="60" as="geometry"/>
                </mxCell>
                <mxCell id="21" style="edgeStyle=orthogonalEdgeStyle;html=1;exitX=0;exitY=0.5;exitDx=0;exitDy=0;entryX=1;entryY=0.5;entryDx=0;entryDy=0;fontColor=#000000;labelBackgroundColor=#FFFFFF;fillColor=#f5f5f5;strokeColor=#666666;" parent="1" source="8" target="4" edge="1">
                    <mxGeometry relative="1" as="geometry"/>
                </mxCell>
                <mxCell id="8" value="CDC_Receive_FS" style="rounded=0;whiteSpace=wrap;html=1;labelBackgroundColor=#FFFFFF;fillColor=#f5f5f5;fontColor=#333333;strokeColor=#666666;" parent="1" vertex="1">
                    <mxGeometry x="160" y="420" width="120" height="60" as="geometry"/>
                </mxCell>
                <mxCell id="11" value="HAL_CAN_AddTxMessage" style="rounded=0;whiteSpace=wrap;html=1;labelBackgroundColor=#FFFFFF;fillColor=#f5f5f5;fontColor=#333333;strokeColor=#666666;" parent="1" vertex="1">
                    <mxGeometry x="-840" y="420" width="160" height="60" as="geometry"/>
                </mxCell>
                <mxCell id="28" value="can_usb.c" style="swimlane;whiteSpace=wrap;html=1;labelBackgroundColor=#FFFFFF;fillColor=#f5f5f5;fontColor=#333333;strokeColor=#666666;" parent="1" vertex="1">
                    <mxGeometry x="-260" y="370" width="360" height="330" as="geometry"/>
                </mxCell>
                <mxCell id="37" value="Command:&lt;br&gt;0x00" style="text;html=1;fillColor=none;align=center;verticalAlign=middle;whiteSpace=wrap;rounded=0;labelBackgroundColor=none;fontColor=#000000;" parent="28" vertex="1">
                    <mxGeometry x="150" y="50" width="60" height="30" as="geometry"/>
                </mxCell>
                <mxCell id="38" value="Command:&lt;br&gt;0x01&lt;br&gt;&lt;br&gt;handshake" style="text;html=1;fillColor=none;align=center;verticalAlign=middle;whiteSpace=wrap;rounded=0;labelBackgroundColor=none;fontColor=#000000;" parent="28" vertex="1">
                    <mxGeometry x="280" y="160" width="60" height="70" as="geometry"/>
                </mxCell>
                <mxCell id="3" value="can_process" style="rounded=0;whiteSpace=wrap;html=1;labelBackgroundColor=#FFFFFF;fillColor=#f5f5f5;fontColor=#333333;strokeColor=#666666;" parent="28" vertex="1">
                    <mxGeometry x="20" y="245" width="120" height="60" as="geometry"/>
                </mxCell>
                <mxCell id="31" value="usbd_cdc_if.c" style="swimlane;whiteSpace=wrap;html=1;labelBackgroundColor=#FFFFFF;fillColor=#f5f5f5;fontColor=#333333;strokeColor=#666666;" parent="1" vertex="1">
                    <mxGeometry x="140" y="370" width="160" height="330" as="geometry"/>
                </mxCell>
                <mxCell id="32" value="user_if.c" style="swimlane;whiteSpace=wrap;html=1;labelBackgroundColor=#FFFFFF;fillColor=#f5f5f5;fontColor=#333333;strokeColor=#666666;" parent="1" vertex="1">
                    <mxGeometry x="-620" y="370" width="320" height="330" as="geometry"/>
                </mxCell>
                <mxCell id="2" value="&lt;font&gt;HAL_CAN_Rx&lt;span style=&quot;font-family: Consolas, &amp;quot;Courier New&amp;quot;, monospace; font-size: 14px;&quot;&gt;Fifo0MsgPendingCallback&lt;/span&gt;&lt;/font&gt;" style="rounded=0;whiteSpace=wrap;html=1;labelBackgroundColor=#FFFFFF;fillColor=#f5f5f5;fontColor=#333333;strokeColor=#666666;" parent="32" vertex="1">
                    <mxGeometry x="20" y="245" width="280" height="60" as="geometry"/>
                </mxCell>
                <mxCell id="40" value="motor.transmit" style="rounded=0;whiteSpace=wrap;html=1;labelBackgroundColor=#FFFFFF;fillColor=#f5f5f5;fontColor=#333333;strokeColor=#666666;" vertex="1" parent="32">
                    <mxGeometry x="100" y="110" width="120" height="60" as="geometry"/>
                </mxCell>
                <mxCell id="33" value="HAL Lib" style="swimlane;whiteSpace=wrap;html=1;labelBackgroundColor=#FFFFFF;fillColor=#f5f5f5;fontColor=#333333;strokeColor=#666666;" parent="1" vertex="1">
                    <mxGeometry x="-860" y="370" width="200" height="330" as="geometry"/>
                </mxCell>
                <mxCell id="36" value="weak" style="text;html=1;fillColor=none;align=center;verticalAlign=middle;whiteSpace=wrap;rounded=0;labelBackgroundColor=none;fontColor=#000000;" parent="33" vertex="1">
                    <mxGeometry x="120" y="240" width="60" height="30" as="geometry"/>
                </mxCell>
                <mxCell id="35" value="" style="shape=flexArrow;endArrow=classic;html=1;fontColor=#000000;entryX=0;entryY=0.5;entryDx=0;entryDy=0;labelBackgroundColor=#FFFFFF;fillColor=#f5f5f5;strokeColor=#666666;" parent="1" target="2" edge="1">
                    <mxGeometry width="50" height="50" relative="1" as="geometry">
                        <mxPoint x="-770" y="645" as="sourcePoint"/>
                        <mxPoint x="-410" y="500" as="targetPoint"/>
                    </mxGeometry>
                </mxCell>
                <mxCell id="44" style="edgeStyle=orthogonalEdgeStyle;html=1;exitX=0;exitY=0.5;exitDx=0;exitDy=0;entryX=1;entryY=0.5;entryDx=0;entryDy=0;fontColor=#000000;labelBackgroundColor=#FFFFFF;fillColor=#f5f5f5;strokeColor=#666666;" edge="1" parent="1" source="40" target="11">
                    <mxGeometry relative="1" as="geometry">
                        <mxPoint x="-230" y="460" as="sourcePoint"/>
                        <mxPoint x="-670" y="460" as="targetPoint"/>
                        <Array as="points">
                            <mxPoint x="-590" y="510"/>
                            <mxPoint x="-590" y="450"/>
                        </Array>
                    </mxGeometry>
                </mxCell>
            </root>
        </mxGraphModel>
    </diagram>
</mxfile>